<svg width="16" height="16" viewBox="0 0 16 16" fill="none" xmlns="http://www.w3.org/2000/svg">
<path fill-rule="evenodd" clip-rule="evenodd" d="M16 8C16 12.4185 12.4183 16 8 16C3.58167 16 0 12.4185 0 8C0 3.58154 3.58167 0 8 0C12.4183 0 16 3.58154 16 8ZM12.194 7.16748C12.123 7.17432 12.0516 7.17871 11.9796 7.17871C11.1642 7.17871 10.4475 6.75977 10.0302 6.12549V9.71289C10.0302 11.1772 8.84277 12.3643 7.37878 12.3643C5.91467 12.3638 4.72729 11.1763 4.72729 9.7124C4.72729 8.24756 5.91467 7.06055 7.37878 7.06055C7.42065 7.06055 7.46167 7.06348 7.50256 7.06641L7.54236 7.06885V8.37598L7.50098 8.37061C7.47241 8.3667 7.44409 8.36279 7.41504 8.36084L7.37878 8.35938C6.63147 8.35938 6.02551 8.96533 6.02551 9.71289C6.02551 10.46 6.63086 11.0659 7.37878 11.0659C8.12659 11.0659 8.7865 10.4771 8.7865 9.72949L8.79968 3.63672H10.0482C10.1654 4.75342 11.0671 5.63477 12.194 5.71582V7.16748Z" fill="#4F4F4F"/>
</svg>
