<svg width="16" height="16" viewBox="0 0 16 16" fill="none" xmlns="http://www.w3.org/2000/svg">
<path d="M9.33583 7.86083L7.46417 6.9875C7.30083 6.91167 7.16667 6.99667 7.16667 7.1775V8.8225C7.16667 9.00333 7.30083 9.08833 7.46417 9.0125L9.335 8.13917C9.49917 8.0625 9.49917 7.9375 9.33583 7.86083ZM8 0C3.58167 0 0 3.58167 0 8C0 12.4183 3.58167 16 8 16C12.4183 16 16 12.4183 16 8C16 3.58167 12.4183 0 8 0ZM8 11.25C3.905 11.25 3.83333 10.8808 3.83333 8C3.83333 5.11917 3.905 4.75 8 4.75C12.095 4.75 12.1667 5.11917 12.1667 8C12.1667 10.8808 12.095 11.25 8 11.25Z" fill="#4F4F4F"/>
</svg>
